<svg preserveAspectRatio="none" width="100%" height="100%" overflow="visible" style="display: block;" viewBox="0 0 34 34" fill="none" xmlns="http://www.w3.org/2000/svg">
<g id="IconBase">
<path id="Vector" d="M17 3.1875C9.8507 3.1875 4.25 6.45469 4.25 10.625V23.375C4.25 27.5453 9.8507 30.8125 17 30.8125C24.1493 30.8125 29.75 27.5453 29.75 23.375V10.625C29.75 6.45469 24.1493 3.1875 17 3.1875ZM27.625 17C27.625 18.2777 26.5784 19.5805 24.7549 20.5753C22.7016 21.6949 19.9471 22.3125 17 22.3125C14.0529 22.3125 11.2984 21.6949 9.24508 20.5753C7.42156 19.5805 6.375 18.2777 6.375 17V14.79C8.64078 16.7822 12.5149 18.0625 17 18.0625C21.4851 18.0625 25.3592 16.7769 27.625 14.79V17ZM9.24508 7.04969C11.2984 5.93008 14.0529 5.3125 17 5.3125C19.9471 5.3125 22.7016 5.93008 24.7549 7.04969C26.5784 8.04445 27.625 9.34734 27.625 10.625C27.625 11.9027 26.5784 13.2055 24.7549 14.2003C22.7016 15.3199 19.9471 15.9375 17 15.9375C14.0529 15.9375 11.2984 15.3199 9.24508 14.2003C7.42156 13.2055 6.375 11.9027 6.375 10.625C6.375 9.34734 7.42156 8.04445 9.24508 7.04969ZM24.7549 26.9503C22.7016 28.0699 19.9471 28.6875 17 28.6875C14.0529 28.6875 11.2984 28.0699 9.24508 26.9503C7.42156 25.9555 6.375 24.6527 6.375 23.375V21.165C8.64078 23.1572 12.5149 24.4375 17 24.4375C21.4851 24.4375 25.3592 23.1519 27.625 21.165V23.375C27.625 24.6527 26.5784 25.9555 24.7549 26.9503Z" fill="var(--fill-0, #7B7F7F)"/>
</g>
</svg>
