<svg preserveAspectRatio="none" width="100%" height="100%" overflow="visible" style="display: block;" viewBox="0 0 34 34" fill="none" xmlns="http://www.w3.org/2000/svg">
<g id="IconBase">
<path id="Vector" d="M17 3.1875C14.2681 3.1875 11.5976 3.99759 9.32619 5.51533C7.05473 7.03306 5.28435 9.19028 4.23891 11.7142C3.19348 14.2381 2.91994 17.0153 3.4529 19.6947C3.98586 22.374 5.30137 24.8352 7.23309 26.7669C9.1648 28.6986 11.626 30.0141 14.3053 30.5471C16.9847 31.0801 19.7619 30.8065 22.2858 29.7611C24.8097 28.7156 26.9669 26.9453 28.4847 24.6738C30.0024 22.4024 30.8125 19.7319 30.8125 17C30.8086 13.3379 29.3521 9.82687 26.7626 7.23736C24.1731 4.64785 20.6621 3.19137 17 3.1875ZM17 5.3125C19.2644 5.3101 21.4802 5.96929 23.375 7.20906V9.82812L20.4305 13.2467L16.2509 13.8125L16.2098 13.7833L13.5973 12.0753C13.3657 11.9122 13.1038 11.797 12.827 11.7365C12.5503 11.6761 12.2642 11.6716 11.9856 11.7233C11.7071 11.775 11.4417 11.8819 11.2051 12.0377C10.9684 12.1935 10.7653 12.395 10.6077 12.6305L7.82664 16.7875C7.59496 17.1339 7.47025 17.5408 7.46805 17.9576L7.4375 22.7694L7.0032 23.0549C5.92956 21.2823 5.34656 19.2561 5.31393 17.184C5.2813 15.1119 5.80023 13.0683 6.81754 11.2628C7.83484 9.45728 9.31393 7.95473 11.1032 6.90913C12.8925 5.86353 14.9276 5.3125 17 5.3125ZM8.27289 24.7655L8.60758 24.5464C8.89984 24.3536 9.13993 24.0916 9.30653 23.7837C9.47312 23.4758 9.56105 23.1314 9.5625 22.7813L9.59039 17.9695L12.3741 13.8125C12.3878 13.823 12.402 13.8327 12.4166 13.8417L15.0291 15.551C15.4669 15.86 16.0056 15.9915 16.5365 15.9189L20.7187 15.3518C21.2345 15.283 21.7071 15.0273 22.0469 14.6333L24.9913 11.212C25.3206 10.8262 25.501 10.3354 25.5 9.82812V8.98742C26.9371 10.5079 27.9391 12.3867 28.401 14.4271C28.8629 16.4676 28.7679 18.5948 28.1257 20.5859L25.9821 18.6256C25.6841 18.3521 25.3142 18.1693 24.9159 18.0987C24.5176 18.0281 24.1074 18.0727 23.7336 18.2272L19.6881 19.9073C19.3499 20.0492 19.0539 20.276 18.8287 20.5656C18.6035 20.8552 18.4567 21.198 18.4025 21.5608L18.0851 23.711C18.0088 24.2286 18.1261 24.7561 18.4145 25.1925C18.703 25.629 19.1422 25.9437 19.6483 26.0764L22.4984 26.8281L22.8119 27.1429C20.4845 28.4783 17.768 28.9709 15.1199 28.5379C12.4718 28.1049 10.0537 26.7727 8.27289 24.7655ZM24.5703 25.8984L23.9992 25.326C23.7328 25.0586 23.4 24.867 23.035 24.7709L20.1875 24.0191L20.5049 21.8689L24.5491 20.1875L27.2266 22.6419C26.5441 23.8783 25.6443 24.9814 24.5703 25.8984Z" fill="var(--fill-0, #7B7F7F)"/>
</g>
</svg>
