<svg preserveAspectRatio="none" width="100%" height="100%" overflow="visible" style="display: block;" viewBox="0 0 34 34" fill="none" xmlns="http://www.w3.org/2000/svg">
<g id="IconBase">
<path id="Vector" d="M30.8125 12.75C30.8131 12.6512 30.7996 12.5528 30.7727 12.4578L28.8668 5.79062C28.7387 5.34825 28.4709 4.95917 28.1035 4.6815C27.7361 4.40383 27.2887 4.25246 26.8281 4.25H7.17188C6.71133 4.25246 6.26393 4.40383 5.8965 4.6815C5.52906 4.95917 5.2613 5.34825 5.1332 5.79062L3.22867 12.4578C3.20124 12.5528 3.18737 12.6511 3.1875 12.75V14.875C3.1875 15.6997 3.37952 16.5132 3.74836 17.2508C4.11719 17.9885 4.65271 18.6302 5.3125 19.125V28.6875C5.3125 28.9693 5.42444 29.2395 5.6237 29.4388C5.82296 29.6381 6.09321 29.75 6.375 29.75H27.625C27.9068 29.75 28.177 29.6381 28.3763 29.4388C28.5756 29.2395 28.6875 28.9693 28.6875 28.6875V19.125C29.3473 18.6302 29.8828 17.9885 30.2516 17.2508C30.6205 16.5132 30.8125 15.6997 30.8125 14.875V12.75ZM7.17188 6.375H26.8281L28.3448 11.6875H5.65914L7.17188 6.375ZM13.8125 13.8125H20.1875V14.875C20.1875 15.7204 19.8517 16.5311 19.2539 17.1289C18.6561 17.7267 17.8454 18.0625 17 18.0625C16.1546 18.0625 15.3439 17.7267 14.7461 17.1289C14.1483 16.5311 13.8125 15.7204 13.8125 14.875V13.8125ZM11.6875 13.8125V14.875C11.6873 15.4231 11.5458 15.9619 11.2766 16.4394C11.0074 16.9169 10.6196 17.3168 10.1507 17.6007C9.68177 17.8845 9.1476 18.0427 8.59974 18.0598C8.05189 18.077 7.50886 17.9526 7.02313 17.6986C6.94921 17.6411 6.86792 17.5937 6.78141 17.5578C6.33127 17.2696 5.96083 16.8729 5.70414 16.4041C5.44746 15.9353 5.31278 15.4095 5.3125 14.875V13.8125H11.6875ZM26.5625 27.625H7.4375V20.0812C7.78728 20.1518 8.14319 20.1874 8.5 20.1875C9.32474 20.1875 10.1382 19.9955 10.8758 19.6266C11.6135 19.2578 12.2552 18.7223 12.75 18.0625C13.2448 18.7223 13.8865 19.2578 14.6242 19.6266C15.3618 19.9955 16.1753 20.1875 17 20.1875C17.8247 20.1875 18.6382 19.9955 19.3758 19.6266C20.1135 19.2578 20.7552 18.7223 21.25 18.0625C21.7448 18.7223 22.3865 19.2578 23.1242 19.6266C23.8618 19.9955 24.6753 20.1875 25.5 20.1875C25.8568 20.1874 26.2127 20.1518 26.5625 20.0812V27.625ZM27.2173 17.5578C27.1319 17.5938 27.0515 17.6407 26.9782 17.6973C26.4925 17.9515 25.9495 18.0762 25.4015 18.0592C24.8536 18.0423 24.3193 17.8843 23.8502 17.6006C23.3812 17.3169 22.9932 16.917 22.7239 16.4395C22.4545 15.9621 22.3128 15.4232 22.3125 14.875V13.8125H28.6875V14.875C28.6871 15.4096 28.5522 15.9355 28.2953 16.4043C28.0384 16.8731 27.6676 17.2698 27.2173 17.5578Z" fill="var(--fill-0, #7B7F7F)"/>
</g>
</svg>
