<svg preserveAspectRatio="none" width="100%" height="100%" overflow="visible" style="display: block;" viewBox="0 0 27.5 27.5" fill="none" xmlns="http://www.w3.org/2000/svg">
<g id="Container">
<path id="Icon" d="M22.5 10L20.9375 6.5625L17.5 5L20.9375 3.4375L22.5 0L24.0625 3.4375L27.5 5L24.0625 6.5625L22.5 10V10M22.5 27.5L20.9375 24.0625L17.5 22.5L20.9375 20.9375L22.5 17.5L24.0625 20.9375L27.5 22.5L24.0625 24.0625L22.5 27.5V27.5M10 23.75L6.875 16.875L0 13.75L6.875 10.625L10 3.75L13.125 10.625L20 13.75L13.125 16.875L10 23.75V23.75M10 17.6875L11.25 15L13.9375 13.75L11.25 12.5L10 9.8125L8.75 12.5L6.0625 13.75L8.75 15L10 17.6875V17.6875M10 13.75V13.75V13.75V13.75V13.75V13.75V13.75V13.75V13.75V13.75" fill="var(--fill-0, #111111)"/>
</g>
</svg>
