<svg preserveAspectRatio="none" width="100%" height="100%" overflow="visible" style="display: block;" viewBox="0 0 22.5 25" fill="none" xmlns="http://www.w3.org/2000/svg">
<g id="Container">
<path id="Icon" d="M10 21.7812V13.2188L2.5 8.875V17.4375V17.4375V17.4375L10 21.7812V21.7812M12.5 21.7812L20 17.4375V17.4375V17.4375V8.875L12.5 13.2188V21.7812V21.7812M11.25 11.0625L18.6562 6.78125L11.25 2.5V2.5V2.5L3.84375 6.78125L11.25 11.0625V11.0625M1.25 19.625C0.854167 19.3958 0.546875 19.0938 0.328125 18.7188C0.109375 18.3438 0 17.9271 0 17.4688V7.53125C0 7.07292 0.109375 6.65625 0.328125 6.28125C0.546875 5.90625 0.854167 5.60417 1.25 5.375L10 0.34375C10.3958 0.114583 10.8125 0 11.25 0C11.6875 0 12.1042 0.114583 12.5 0.34375L21.25 5.375C21.6458 5.60417 21.9531 5.90625 22.1719 6.28125C22.3906 6.65625 22.5 7.07292 22.5 7.53125V17.4688C22.5 17.9271 22.3906 18.3438 22.1719 18.7188C21.9531 19.0938 21.6458 19.3958 21.25 19.625L12.5 24.6562C12.1042 24.8854 11.6875 25 11.25 25C10.8125 25 10.3958 24.8854 10 24.6562L1.25 19.625V19.625M11.25 12.5V12.5V12.5V12.5V12.5V12.5V12.5V12.5V12.5V12.5V12.5V12.5V12.5V12.5V12.5V12.5V12.5V12.5V12.5V12.5" fill="var(--fill-0, #111111)"/>
</g>
</svg>
