<svg preserveAspectRatio="none" width="100%" height="100%" overflow="visible" style="display: block;" viewBox="0 0 18 18" fill="none" xmlns="http://www.w3.org/2000/svg">
<g id="IconBase">
<path id="Vector" d="M14.0625 4.5V11.8125C14.0625 11.9617 14.0032 12.1048 13.8977 12.2102C13.7923 12.3157 13.6492 12.375 13.5 12.375C13.3508 12.375 13.2077 12.3157 13.1023 12.2102C12.9968 12.1048 12.9375 11.9617 12.9375 11.8125V5.85773L4.89797 13.898C4.79242 14.0035 4.64927 14.0628 4.5 14.0628C4.35073 14.0628 4.20758 14.0035 4.10203 13.898C3.99648 13.7924 3.93719 13.6493 3.93719 13.5C3.93719 13.3507 3.99648 13.2076 4.10203 13.102L12.1423 5.0625H6.1875C6.03832 5.0625 5.89524 5.00324 5.78975 4.89775C5.68426 4.79226 5.625 4.64918 5.625 4.5C5.625 4.35082 5.68426 4.20774 5.78975 4.10225C5.89524 3.99676 6.03832 3.9375 6.1875 3.9375H13.5C13.6492 3.9375 13.7923 3.99676 13.8977 4.10225C14.0032 4.20774 14.0625 4.35082 14.0625 4.5Z" fill="var(--fill-0, white)"/>
</g>
</svg>
