<svg preserveAspectRatio="none" width="100%" height="100%" overflow="visible" style="display: block;" viewBox="0 0 13 13" fill="none" xmlns="http://www.w3.org/2000/svg">
<g id="IconBase">
<path id="Vector" d="M6.5 1.21875C5.45547 1.21875 4.43439 1.52849 3.56589 2.1088C2.6974 2.68911 2.02049 3.51393 1.62076 4.47895C1.22104 5.44397 1.11645 6.50586 1.32023 7.53032C1.52401 8.55478 2.027 9.49581 2.76559 10.2344C3.50419 10.973 4.44522 11.476 5.46968 11.6798C6.49414 11.8835 7.55602 11.779 8.52105 11.3792C9.48607 10.9795 10.3109 10.3026 10.8912 9.4341C11.4715 8.56561 11.7812 7.54453 11.7812 6.5C11.7798 5.09978 11.2229 3.75733 10.2328 2.76723C9.24267 1.77712 7.90022 1.22023 6.5 1.21875ZM6.5 2.03125C7.3658 2.03033 8.213 2.28237 8.9375 2.75641V3.75781L7.81168 5.06492L6.21359 5.28125L6.19785 5.27008L5.19898 4.61703C5.11042 4.55465 5.01029 4.5106 4.90446 4.48749C4.79863 4.46437 4.68924 4.46266 4.58274 4.48243C4.47623 4.50221 4.37476 4.54308 4.28428 4.60265C4.19381 4.66222 4.11616 4.73928 4.0559 4.8293L2.99254 6.41875C2.90395 6.55121 2.85627 6.70679 2.85543 6.86613L2.84375 8.70594L2.6777 8.81512C2.26719 8.13736 2.04427 7.36264 2.0318 6.57035C2.01932 5.77807 2.21774 4.99671 2.6067 4.30636C2.99567 3.61602 3.56121 3.04151 4.24534 2.64173C4.92948 2.24194 5.70762 2.03125 6.5 2.03125ZM3.16316 9.46918L3.29113 9.38539C3.40288 9.31168 3.49468 9.2115 3.55838 9.09376C3.62208 8.97603 3.6557 8.84437 3.65625 8.71051L3.66691 6.8707L4.73129 5.28125C4.7365 5.28526 4.74193 5.28899 4.74754 5.29242L5.74641 5.94598C5.9138 6.06412 6.11977 6.11439 6.32277 6.08664L7.92187 5.8698C8.11907 5.84349 8.29976 5.74574 8.42969 5.59508L9.55551 4.28695C9.68141 4.13944 9.7504 3.95175 9.75 3.75781V3.43637C10.2995 4.01771 10.6826 4.73607 10.8592 5.51626C11.0358 6.29645 10.9995 7.10977 10.7539 7.87109L9.93434 7.12156C9.82039 7.01697 9.67897 6.94708 9.52667 6.92009C9.37438 6.89311 9.21755 6.91015 9.07461 6.96922L7.52781 7.6116C7.39847 7.66589 7.2853 7.75258 7.1992 7.86332C7.1131 7.97405 7.05698 8.1051 7.03625 8.24383L6.91488 9.06598C6.88571 9.26386 6.93056 9.46556 7.04085 9.63244C7.15113 9.79931 7.31909 9.91965 7.51258 9.97039L8.60234 10.2578L8.72219 10.3782C7.8323 10.8887 6.79366 11.0771 5.78114 10.9116C4.76863 10.746 3.84408 10.2366 3.16316 9.46918ZM9.39453 9.90234L9.17617 9.68348C9.07431 9.58123 8.94706 9.50797 8.8075 9.47121L7.71875 9.18379L7.84012 8.36164L9.38641 7.71875L10.4102 8.65719C10.1492 9.12992 9.80518 9.55173 9.39453 9.90234Z" fill="var(--fill-0, #8A8D8D)"/>
</g>
</svg>
